<?xml version="1.0" encoding="UTF-8"?>
<svg id="Layer_2" data-name="Layer 2" xmlns="http://www.w3.org/2000/svg" viewBox="0 0 65.04 65.03">
  <defs>
    <style>
      .cls-1 {
        fill: #ff595a;
        fill-rule: evenodd;
      }
    </style>
  </defs>
  <g id="Design">
    <g>
      <path class="cls-1" d="M7.42,53.19C2.62,47.37,0,40.15,0,32.52,0,23.84,3.38,15.66,9.53,9.53,15.66,3.4,23.83,0,32.52,0s16.84,3.38,22.99,9.53,9.53,14.3,9.53,22.99c0,3.77-.64,7.48-1.92,11.01-.63-.69-1.33-1.32-2.09-1.87.94-2.96,1.42-6.03,1.42-9.14,0-16.5-13.42-29.93-29.93-29.93S2.58,16,2.58,32.5c0,6.82,2.27,13.3,6.45,18.56v-.12c0-.72.58-1.29,1.29-1.3.72,0,1.3.58,1.3,1.3v3.53c0,.72-.58,1.3-1.3,1.3h-3.54c-.72,0-1.3-.58-1.3-1.3s.58-1.29,1.3-1.29h.64ZM29.96,64.92c-5.47-.42-10.74-2.21-15.35-5.27-.6-.39-.76-1.2-.36-1.8.39-.6,1.2-.76,1.8-.37,4.89,3.25,10.61,4.94,16.47,4.94,3.11,0,6.19-.48,9.14-1.42.55.76,1.18,1.47,1.87,2.09-3.55,1.27-7.26,1.92-11.03,1.92h-2.8l.25-.09Z"/>
      <polygon class="cls-1" points="58.53 49.26 54.39 55.17 58.53 55.17 58.53 49.26"/>
      <path class="cls-1" d="M52.88,40.73c-6.7,0-12.15,5.44-12.15,12.15s5.44,12.15,12.15,12.15,12.15-5.44,12.15-12.15-5.44-12.15-12.15-12.15h0ZM52.31,55.5l6.36-9.06c.19-.27.54-.39.85-.29.31.1.52.39.52.72v8.3h1.11c.42,0,.75.34.75.76s-.34.76-.76.76h-1.11v2.18c0,.42-.34.75-.76.75h0c-.42,0-.76-.34-.76-.75v-2.2h-5.59c-.29,0-.54-.15-.67-.4-.11-.25-.1-.55.07-.78h0ZM46.16,58.13h4.41c.42,0,.75.34.75.76s-.34.76-.75.75h-5.98c-.29,0-.55-.17-.67-.42s-.09-.57.09-.79l5.28-6.67c.34-.45.52-.99.52-1.56,0-.81-.37-1.56-1-2.04-1.12-.87-2.74-.64-3.6.48-.25.33-.73.39-1.06.13s-.39-.73-.13-1.06c1.38-1.78,3.93-2.12,5.73-.75,1.02.78,1.6,1.96,1.6,3.25,0,.9-.3,1.77-.84,2.48l-4.34,5.43Z"/>
      <path class="cls-1" d="M33.27,30.01c1.08.33,1.85,1.33,1.85,2.5,0,1.44-1.17,2.62-2.62,2.62-.45,0-.87-.12-1.24-.31l-9.38,9.38c-.15.15-.34.22-.54.22s-.39-.07-.54-.22c-.3-.3-.3-.78,0-1.06l9.38-9.38c-.19-.37-.31-.79-.31-1.24,0-1.18.78-2.18,1.85-2.5v-9.54c0-.42.34-.76.75-.76s.76.34.76.76l.03,9.54h0ZM13.87,14.94c-4.34,4.59-6.79,10.5-6.97,16.81h4.01c.42,0,.75.34.75.76s-.34.76-.75.76h-3.99c.18,6.31,2.63,12.22,6.97,16.81l2.83-2.83c.3-.3.78-.3,1.06,0,.3.3.3.78,0,1.06l-2.83,2.83c4.59,4.34,10.52,6.78,16.81,6.97v-4.01c0-.42.34-.76.75-.76s.76.34.76.76v4.01c2.24-.06,4.47-.42,6.61-1.06-.42-1.32-.66-2.72-.66-4.19,0-7.53,6.13-13.66,13.66-13.66,1.45,0,2.86.22,4.19.66.64-2.14,1-4.35,1.06-6.61h-4.01c-.42,0-.76-.34-.76-.76s.34-.76.76-.76h4.01c-.18-6.31-2.63-12.22-6.97-16.81l-2.83,2.84c-.15.15-.34.22-.54.22s-.39-.07-.54-.22c-.3-.3-.3-.78,0-1.06l2.83-2.83c-4.59-4.34-10.52-6.79-16.81-6.97v4.01c0,.42-.34.76-.76.76s-.76-.34-.76-.76v-4.01c-6.31.18-12.22,2.63-16.81,6.97l2.83,2.83c.3.3.3.78,0,1.06-.15.15-.34.22-.54.22s-.39-.07-.54-.22l-2.82-2.83Z"/>
      <path class="cls-1" d="M31.41,32.5c0,.61.49,1.11,1.11,1.11s1.11-.49,1.11-1.11-.49-1.11-1.11-1.11c-.61.02-1.11.51-1.11,1.11Z"/>
    </g>
  </g>
</svg>