<?xml version="1.0" encoding="UTF-8"?>
<svg id="Layer_2" data-name="Layer 2" xmlns="http://www.w3.org/2000/svg" viewBox="0 0 75.68 65.51">
  <defs>
    <style>
      .cls-1 {
        fill: #ff595a;
        fill-rule: evenodd;
      }
    </style>
  </defs>
  <g id="Design">
    <g>
      <polygon id="_311018480" data-name=" 311018480" class="cls-1" points="49.8 37.68 49.8 48.09 57.35 48.09 57.35 37.68 49.8 37.68"/>
      <path id="_311018432" data-name=" 311018432" class="cls-1" d="M52.87,30.93c0,.57-.47,1.04-1.04,1.04h-4.23c-.58,0-1.04-.47-1.04-1.04v-4.23c0-.57.47-1.04,1.04-1.04h4.23c.57,0,1.04.47,1.04,1.04v4.23h0ZM44.52,14.83v33.26h3.2v-11.45c0-.57.47-1.04,1.04-1.04h9.62c.57,0,1.04.47,1.04,1.04v11.45h3.2V14.83h-18.11ZM59.56,31.97h-4.23c-.57,0-1.04-.47-1.04-1.04v-4.23c0-.57.47-1.04,1.04-1.04h4.23c.57,0,1.04.47,1.04,1.04v4.23c0,.58-.47,1.04-1.04,1.04ZM59.56,23.86h-4.23c-.57,0-1.04-.47-1.04-1.04v-4.23c0-.57.47-1.04,1.04-1.04h4.23c.57,0,1.04.47,1.04,1.04v4.23c0,.57-.47,1.04-1.04,1.04h0ZM51.83,23.86h-4.23c-.58,0-1.04-.47-1.04-1.04v-4.23c0-.57.47-1.04,1.04-1.04h4.23c.57,0,1.04.47,1.04,1.04v4.23c0,.57-.47,1.04-1.04,1.04h0Z"/>
      <polygon id="_311018312" data-name=" 311018312" class="cls-1" points="56.37 27.74 56.37 29.89 58.51 29.89 58.51 27.74 56.37 27.74"/>
      <polygon id="_311018000" data-name=" 311018000" class="cls-1" points="56.37 19.63 56.37 21.78 58.51 21.78 58.51 19.63 56.37 19.63"/>
      <polygon id="_311017544" data-name=" 311017544" class="cls-1" points="48.64 19.63 48.64 21.78 50.78 21.78 50.78 19.63 48.64 19.63"/>
      <polygon id="_311017448" data-name=" 311017448" class="cls-1" points="48.64 27.74 48.64 29.89 50.78 29.89 50.78 27.74 48.64 27.74"/>
      <path id="_311017400" data-name=" 311017400" class="cls-1" d="M42.44,15.6l-13.27,7.68v24.81h13.27V15.6h0ZM31.57,25.12h8.46c.57,0,1.04.47,1.04,1.04s-.47,1.04-1.04,1.04h-8.46c-.57,0-1.04-.47-1.04-1.04s.47-1.04,1.04-1.04h0ZM31.57,30.74h8.46c.57,0,1.04.47,1.04,1.04s-.47,1.04-1.04,1.04h-8.46c-.57,0-1.04-.47-1.04-1.04s.47-1.04,1.04-1.04h0ZM31.57,36.35h8.46c.57,0,1.04.47,1.04,1.04s-.47,1.04-1.04,1.04h-8.46c-.57,0-1.04-.47-1.04-1.04s.47-1.04,1.04-1.04h0ZM31.57,41.97h8.46c.57,0,1.04.47,1.04,1.04s-.47,1.04-1.04,1.04h-8.46c-.57,0-1.04-.47-1.04-1.04s.47-1.04,1.04-1.04h0Z"/>
      <path id="_311017256" data-name=" 311017256" class="cls-1" d="M0,7.02v45.68c1.67-2.02,4.2-3.31,7.02-3.31s5.35,1.29,7.02,3.31V7.02h0c0-3.87-3.15-7.02-7.02-7.02C3.15,0,0,3.15,0,7.02h0Z"/>
      <path id="_311017160" data-name=" 311017160" class="cls-1" d="M16.13,8.06v50.42c0,.57-.46,1.04-1.04,1.04s-1.03-.49-1.04-1.04c0-3.87-3.15-7.02-7.02-7.02S.02,54.6,0,58.46c0,3.89,3.13,7.05,7.02,7.05h68.65V8.06H16.13ZM27.09,49.14v-26.46c0-.37.2-.72.52-.9l15.35-8.88c.17-.1.36-.14.55-.14h20.17c.57,0,1.04.47,1.04,1.04v35.34c0,.57-.47,1.04-1.04,1.04H28.13c-.57,0-1.04-.46-1.04-1.04h0ZM37.44,60.82c-.32,0-.63-.14-.84-.42l-2.26-3.06s0,0-.01-.02c-.13-.17-.21-.39-.21-.62s.08-.45.21-.62c0,0,0,0,0,0l2.27-3.07c.34-.46.99-.56,1.46-.22.46.34.56,1,.22,1.46l-1.05,1.42h17.35l-1.05-1.42c-.34-.46-.24-1.11.22-1.46.46-.34,1.11-.24,1.46.22l2.28,3.08c.13.17.2.39.2.62,0,.1-.01.19-.04.28-.04.13-.09.24-.17.34,0,0,0,0-.01.02l-2.26,3.06c-.21.28-.52.42-.84.42-.22,0-.43-.07-.62-.2-.46-.34-.56-1-.22-1.46l1.05-1.42h-17.35l1.05,1.42c.34.46.24,1.11-.22,1.46-.19.13-.4.2-.62.2h0Z"/>
    </g>
  </g>
</svg>