<?xml version="1.0" encoding="UTF-8"?>
<svg id="Layer_2" data-name="Layer 2" xmlns="http://www.w3.org/2000/svg" viewBox="0 0 66.01 65.51">
  <defs>
    <style>
      .cls-1 {
        fill: #ff595a;
        fill-rule: evenodd;
      }
    </style>
  </defs>
  <g id="Design">
    <path class="cls-1" d="M7.35,0h4.16c.34,0,.61.27.61.61v2.84c0,.34-.27.61-.61.61h-.99c-2.27,0-4.13,1.86-4.13,4.13s1.86,4.13,4.13,4.13h.99c.34,0,.61.27.61.61v51.63c0,.34-.27.61-.61.61h-4.16c-4.04,0-7.35-3.31-7.35-7.35V7.35C0,3.31,3.31,0,7.35,0h0ZM45.44,38.2c-.93.45-1.82,1-2.66,1.65-.5.39-.99.81-1.45,1.28-.23.23-.43.48-.63.72-4.86,5.72-4.53,14.3.94,19.6,1.89,1.83,4.14,3.04,6.52,3.63,0,0,.02,0,.03,0,.01,0,.02,0,.03,0,2.38.58,4.88.55,7.24-.1.03,0,.05,0,.08-.01.09-.03.18-.06.26-.1,1.39-.42,2.73-1.04,3.97-1.89.78-.53,1.51-1.15,2.19-1.85.7-.72,1.31-1.5,1.82-2.31.14-.22.26-.45.39-.68,3.11-5.55,2.27-12.69-2.51-17.33-4.44-4.31-10.94-5.16-16.22-2.64h0ZM60.17,46.99h0c.36,1.85-.18,3.84-1.61,5.27-1.61,1.61-3.92,2.09-5.95,1.43-.22-.07-.44-.02-.6.15l-4.7,4.7c-.66-.4-1.28-.89-1.85-1.46s-1.06-1.19-1.46-1.85l4.7-4.7c.16-.16.22-.39.15-.6-.65-2.03-.18-4.34,1.43-5.95,1.43-1.43,3.42-1.97,5.27-1.61.22.04.39.19.46.41.07.22.01.44-.15.6l-3.62,3.62c-.23.23-.23.61,0,.84l2.47,2.47c.23.23.61.23.84,0l3.62-3.62c.16-.16.38-.21.59-.15.22.07.37.23.41.46h0ZM33.21,48.93c.85-8.62,7.9-15.57,16.53-16.32,2.13-.19,4.19,0,6.13.49.43.11.85-.2.85-.65V13.27c0-.53-.43-.95-.95-.95H14.22v52.24c0,.34.27.61.61.61h23.53c.61,0,.9-.74.45-1.16-3.92-3.71-6.19-9.13-5.61-15.07h0ZM14.83,4.06h41.89V1.02c0-.56-.46-1.02-1.02-1.02H14.83c-.34,0-.61.27-.61.61v2.84c0,.34.27.61.61.61h0Z"/>
  </g>
</svg>