<svg version="1.2" xmlns="http://www.w3.org/2000/svg" viewBox="0 0 509 181" width="509" height="181">
	<style>
		.s0 { fill: #002a3a } 
		.s1 { fill: #ff595a } 
		.s2 { fill: #00bed6 } 
		.s3 { fill: #5fd0df } 
		.s4 { fill: #00abc8 } 
	</style>
	<g>
		<g>
			<g>
				<path class="s0" d="m180.37 102.69c7.66 1.02 12.35 6.96 12.35 13.21 0 8.99-7.58 14.93-18.84 14.93h-22.51v-54.71h20.09c10.71 0 18.68 5.47 18.68 14.54 0 5.16-3.2 10.08-9.77 12.03zm-12.19-2.97c9.07 0 11.72-4.38 11.72-8.52 0-4.69-3.99-7.03-8.44-7.03h-10.08v15.55zm-6.8 7.27v15.87h12.5c4.92 0 8.6-2.81 8.6-7.19 0-4.38-2.81-8.68-12.82-8.68z"/>
				<path class="s0" d="m241.41 91.28v39.55h-9.61v-5.94c-2.81 4.3-7.74 6.8-13.52 6.8-11.72 0-19.38-9.22-19.38-20.79 0-11.57 7.35-20.48 19.46-20.48 5.31 0 10.24 2.19 13.44 6.72v-5.86zm-21.18 32.36c6.56 0 11.8-4.46 11.8-12.27 0-7.81-4.92-12.9-12.04-12.9-7.12 0-11.41 5.71-11.41 12.5 0 6.79 4.45 12.66 11.65 12.66z"/>
				<path class="s0" d="m257.35 73.46c3.59 0 6.41 2.66 6.41 6.1 0 3.44-2.81 6.02-6.41 6.02-3.6 0-6.25-2.58-6.25-6.02 0-3.44 2.66-6.1 6.25-6.1zm-4.84 57.37v-39.55h9.61v39.55z"/>
				<path class="s0" d="m312.92 76.12v8.05h-16.88v46.66h-10v-46.66h-16.73v-8.05z"/>
				<path class="s0" d="m350.59 124.11c-5.31 5.94-11.8 7.58-17.9 7.58-14.22 0-22.74-9.22-22.74-20.48 0-11.26 9.14-20.79 21.65-20.79 10.71 0 20.79 6.72 20.79 21.96h-32.83c0 6.25 5.08 11.18 13.6 11.18 4.92 0 8.6-1.8 11.96-4.85 0 0 5.47 5.39 5.47 5.4zm-30.56-18.21h22.51c-1.48-6.1-6.88-7.82-10.94-7.82-4.06 0-9.53 1.72-11.57 7.82z"/>
				<path class="s0" d="m379.51 90.42c3.83 0 9.14 0.86 15.24 5.31l-4.45 6.88c-4.06-3.36-8.83-3.59-10.32-3.59-7.66 0-13.05 4.92-13.05 12.04 0 7.12 5.39 12.04 13.05 12.04 1.49 0 6.25-0.31 10.32-3.59l4.45 6.8c-6.1 4.53-11.41 5.39-15.24 5.39-13.75 0-22.27-8.91-22.27-20.4 0-11.49 8.28-20.87 22.27-20.88z"/>
				<path class="s0" d="m402.02 74.32h9.61v23.6c2.5-5.16 7.11-7.5 12.74-7.5 9.85 0 14.69 7.11 14.69 18.52v21.88h-9.61v-21.81c0-6.88-2.97-10.47-7.74-10.47-4.77 0-10.08 3.52-10.08 12.5v19.77h-9.61v-56.51z"/>
			</g>
			<g>
				<path id="app" class="s0" aria-label="app"  d="m396.1 150.3h-2.5q-3.1 0-4.2 0.7-1.2 0.7-1.2 2.4 0 1.3 0.9 2.1 0.9 0.8 2.4 0.8 2.1 0 3.3-1.5 1.3-1.5 1.3-3.9zm2.5-1.1v8.8h-2.5v-2.4q-0.9 1.4-2.1 2.1-1.3 0.7-3.2 0.7-2.3 0-3.7-1.4-1.4-1.3-1.4-3.5 0-2.6 1.7-3.9 1.7-1.3 5.2-1.3h3.5v-0.3q0-1.7-1.1-2.6-1.2-1-3.2-1-1.4 0-2.6 0.3-1.2 0.3-2.4 1v-2.4q1.4-0.5 2.7-0.7 1.3-0.3 2.5-0.3 3.3 0 5 1.7 1.6 1.7 1.6 5.2zm7.5 6.5v8.1h-2.6v-21.2h2.6v2.4q0.8-1.4 2-2.1 1.2-0.6 2.9-0.6 2.8 0 4.5 2.2 1.7 2.2 1.7 5.8 0 3.6-1.7 5.8-1.7 2.3-4.5 2.3-1.7 0-2.9-0.7-1.2-0.7-2-2zm8.5-5.4q0-2.8-1.1-4.3-1.2-1.6-3.1-1.6-2 0-3.2 1.6-1.1 1.5-1.1 4.3 0 2.8 1.1 4.4 1.2 1.6 3.2 1.6 1.9 0 3.1-1.6 1.1-1.6 1.1-4.4zm9.5 5.4v8.1h-2.6v-21.2h2.6v2.4q0.8-1.4 2-2.1 1.2-0.6 2.9-0.6 2.8 0 4.5 2.2 1.7 2.2 1.7 5.8 0 3.6-1.7 5.8-1.7 2.3-4.5 2.3-1.7 0-2.9-0.7-1.2-0.7-2-2zm8.5-5.4q0-2.8-1.1-4.3-1.2-1.6-3.1-1.6-2 0-3.2 1.6-1.1 1.5-1.1 4.3 0 2.8 1.1 4.4 1.2 1.6 3.2 1.6 1.9 0 3.1-1.6 1.1-1.6 1.1-4.4z"/>
				<path class="s0" d="m380.5 158.18h-0.08c-1.05 0-1.94-0.75-1.94-1.91v-0.05c0-1.1 0.86-1.91 1.94-1.91h0.08c1.1 0 1.96 0.78 1.96 1.91v0.05c0 1.16-0.86 1.91-1.96 1.91z"/>
			</g>
		</g>
		<g>
			<path fill-rule="evenodd" class="s1" d="m104.11 130.84h36.17v-35.42l-36.17-36.18v71.6z"/>
			<path fill-rule="evenodd" class="s2" d="m68.96 130l34.58-34.49v-36.27l-34.58 34.48v36.28z"/>
			<path fill-rule="evenodd" class="s3" d="m68.96 92.88l34.58-34.49v-36.27l-34.58 34.49v36.27z"/>
			<path fill-rule="evenodd" class="s4" d="m103.54 96.36l-34.58 34.48h34.58v-34.48z"/>
		</g>
	</g>
</svg>