<?xml version="1.0" encoding="UTF-8"?>
<svg id="Layer_1" data-name="Layer 1" xmlns="http://www.w3.org/2000/svg" viewBox="0 0 508.03 180.08">
  <defs>
    <style>
      .cls-1 {
        fill: #5fd0df;
      }

      .cls-2 {
        font-family: FilsonProMedium, 'Filson Pro';
        font-size: 28.19px;
      }

      .cls-2, .cls-3 {
        fill: #fff;
      }

      .cls-4 {
        fill: #00bed6;
      }

      .cls-5 {
        fill: #ff595a;
      }

      .cls-6 {
        fill: #00abc8;
      }
    </style>
  </defs>
  <path class="cls-3" d="M182.1,103.49c7.66,1.02,12.35,6.96,12.35,13.21,0,8.99-7.58,14.93-18.84,14.93h-22.51v-54.71h20.09c10.71,0,18.68,5.47,18.68,14.54,0,5.16-3.2,10.08-9.77,12.04ZM169.91,100.52c9.07,0,11.72-4.38,11.72-8.52,0-4.69-3.99-7.03-8.44-7.03h-10.08v15.55h6.8ZM163.11,107.78v15.87h12.5c4.92,0,8.6-2.81,8.6-7.19s-2.81-8.68-12.82-8.68h-8.28Z"/>
  <path class="cls-3" d="M243.14,92.07v39.55h-9.61v-5.94c-2.81,4.3-7.74,6.8-13.52,6.8-11.72,0-19.38-9.22-19.38-20.79s7.35-20.48,19.46-20.48c5.31,0,10.24,2.19,13.44,6.72v-5.86h9.61ZM221.96,124.43c6.56,0,11.8-4.46,11.8-12.27s-4.92-12.9-12.04-12.9-11.41,5.71-11.41,12.5,4.45,12.66,11.65,12.66Z"/>
  <path class="cls-3" d="M259.08,74.26c3.59,0,6.41,2.66,6.41,6.1s-2.81,6.02-6.41,6.02-6.25-2.58-6.25-6.02,2.66-6.1,6.25-6.1ZM254.24,131.62v-39.55h9.61v39.55h-9.61Z"/>
  <path class="cls-3" d="M314.65,76.91v8.05h-16.88v46.66h-10v-46.66h-16.73v-8.05h43.61Z"/>
  <path class="cls-3" d="M352.32,124.9c-5.31,5.94-11.8,7.58-17.9,7.58-14.22,0-22.74-9.22-22.74-20.48s9.14-20.79,21.65-20.79c10.71,0,20.79,6.72,20.79,21.96h-32.83c0,6.25,5.08,11.18,13.6,11.18,4.92,0,8.6-1.8,11.96-4.85l5.47,5.39ZM321.76,106.69h22.51c-1.48-6.1-6.88-7.82-10.94-7.82s-9.53,1.72-11.57,7.82Z"/>
  <path class="cls-3" d="M381.24,91.21c3.83,0,9.14.86,15.24,5.31l-4.45,6.88c-4.06-3.36-8.83-3.59-10.32-3.59-7.66,0-13.05,4.92-13.05,12.04s5.39,12.04,13.05,12.04c1.49,0,6.25-.31,10.32-3.59l4.45,6.8c-6.1,4.53-11.41,5.39-15.24,5.39-13.75,0-22.27-8.91-22.27-20.4s8.28-20.87,22.27-20.87Z"/>
  <path class="cls-3" d="M403.75,75.12h9.61v23.6c2.5-5.16,7.11-7.5,12.74-7.5,9.85,0,14.69,7.11,14.69,18.52v21.88h-9.61v-21.81c0-6.88-2.97-10.47-7.74-10.47s-10.08,3.52-10.08,12.5v19.77h-9.61v-56.51Z"/>
  <text class="cls-2" transform="translate(385.73 158.56)"><tspan x="0" y="0">app</tspan></text>
  <path class="cls-3" d="M382.22,158.97h-.08c-1.05,0-1.94-.75-1.94-1.91v-.05c0-1.1.86-1.91,1.94-1.91h.08c1.1,0,1.96.78,1.96,1.91v.05c0,1.16-.86,1.91-1.96,1.91Z"/>
  <polygon class="cls-5" points="105.83 131.64 142.01 131.64 142.01 96.21 105.83 60.04 105.83 131.64"/>
  <polygon class="cls-4" points="70.69 130.79 105.27 96.31 105.27 60.04 70.69 94.52 70.69 130.79"/>
  <polygon class="cls-1" points="70.69 93.67 105.27 59.19 105.27 22.92 70.69 57.4 70.69 93.67"/>
  <polygon class="cls-6" points="105.27 97.15 70.69 131.64 105.27 131.64 105.27 97.15"/>
</svg>