<svg version="1.1" id="Layer_1" xmlns:x="ns_extend;" xmlns:i="ns_ai;" xmlns:graph="ns_graphs;" xmlns="http://www.w3.org/2000/svg" xmlns:xlink="http://www.w3.org/1999/xlink" x="0px" y="0px" viewBox="0 0 56.4 56.3" style="enable-background:new 0 0 56.4 56.3;" xml:space="preserve">
 <metadata>
  <sfw xmlns="ns_sfw;">
   <slices>
   </slices>
   <sliceSourceBounds bottomLeftOrigin="true" height="56.3" width="56.4" x="0" y="34.8">
   </sliceSourceBounds>
  </sfw>
 </metadata>
 <g>
  <g>
   <path d="M28.2,0C12.6,0,0,12.6,0,28.1s12.6,28.2,28.2,28.2s28.2-12.6,28.2-28.2S43.8,0,28.2,0z M28.2,52.2
			c-13.3,0-24.1-10.8-24.1-24.1s10.8-24,24.1-24s24.1,10.8,24.1,24.1C52.3,41.4,41.5,52.2,28.2,52.2z">
   </path>
   <path d="M28.2,7.7c-11.3,0-20.5,9.1-20.5,20.4s9.2,20.5,20.5,20.5s20.5-9.2,20.5-20.5S39.5,7.7,28.2,7.7z M28.2,44.1
			c-8.8,0-16-7.2-16-16s7.2-16,16-16s16,7.2,16,16C44.2,37,37,44.1,28.2,44.1z">
   </path>
  </g>
 </g>
</svg>