<svg xmlns="http://www.w3.org/2000/svg" width="24" height="24" fill="none" viewBox="0 0 24 24" id="whatsapp-business">
  <path fill="#000" fill-rule="evenodd" d="M12 3.75C7.44367 3.75 3.75002 7.44365 3.75002 12C3.75002 13.6246 4.21885 15.1374 5.0283 16.4132C5.1491 16.6036 5.17783 16.8383 5.10652 17.0522L4.18587 19.8141L6.94782 18.8935C7.16174 18.8222 7.39639 18.8509 7.58679 18.9717C8.86259 19.7812 10.3754 20.25 12 20.25C13.3415 20.25 14.6062 19.9304 15.724 19.3638C16.0935 19.1766 16.5448 19.3243 16.7321 19.6938C16.9193 20.0633 16.7716 20.5146 16.4021 20.7018C15.0789 21.3724 13.5825 21.75 12 21.75C10.2118 21.75 8.53426 21.268 7.09231 20.4265L3.23719 21.7115C2.96769 21.8013 2.67056 21.7312 2.46969 21.5303C2.26882 21.3295 2.19867 21.0323 2.28851 20.7628L3.57355 16.9077C2.73207 15.4658 2.25002 13.7882 2.25002 12C2.25002 6.61522 6.61524 2.25 12 2.25C17.3848 2.25 21.75 6.61522 21.75 12C21.75 13.5568 21.3846 15.0304 20.7342 16.3377C20.5497 16.7085 20.0995 16.8596 19.7286 16.6751C19.3578 16.4906 19.2067 16.0404 19.3912 15.6695C19.9407 14.5651 20.25 13.3198 20.25 12C20.25 7.44365 16.5564 3.75 12 3.75Z" clip-rule="evenodd"></path>
  <path fill="#000" fill-rule="evenodd" d="M8.75 7C8.75 6.58579 9.08579 6.25 9.5 6.25H13C14.7949 6.25 16.25 7.70507 16.25 9.5C16.25 11.2949 14.7949 12.75 13 12.75H9.5C9.08579 12.75 8.75 12.4142 8.75 12V7ZM10.25 7.75V11.25H13C13.9665 11.25 14.75 10.4665 14.75 9.5C14.75 8.5335 13.9665 7.75 13 7.75H10.25Z" clip-rule="evenodd"></path>
  <path fill="#000" fill-rule="evenodd" d="M8.75 12C8.75 11.5858 9.08579 11.25 9.5 11.25H13C14.7949 11.25 16.25 12.7051 16.25 14.5C16.25 16.2949 14.7949 17.75 13 17.75H9.5C9.08579 17.75 8.75 17.4142 8.75 17V12ZM10.25 12.75V16.25H13C13.9665 16.25 14.75 15.4665 14.75 14.5C14.75 13.5335 13.9665 12.75 13 12.75H10.25Z" clip-rule="evenodd"></path>
</svg>
