<?xml version="1.0" encoding="UTF-8"?>
<svg id="Layer_2" data-name="Layer 2" xmlns="http://www.w3.org/2000/svg" viewBox="0 0 65.51 65.51">
  <defs>
    <style>
      .cls-1 {
        fill: #ff595a;
      }
    </style>
  </defs>
  <g id="Design">
    <path class="cls-1" d="M0,26.06v13.39h7.66c.59,2.25,1.47,4.37,2.6,6.34l-5.4,5.4,9.46,9.46,5.38-5.38c1.97,1.15,4.1,2.04,6.36,2.64v7.6h13.38v-7.6c2.26-.6,4.39-1.49,6.36-2.64l5.38,5.38,9.47-9.47-5.39-5.39c1.14-1.97,2.01-4.09,2.6-6.34h7.65v-13.39h-7.69c-.6-2.23-1.48-4.34-2.62-6.29l5.45-5.45-9.47-9.46-5.46,5.46c-1.95-1.12-4.05-1.99-6.27-2.58V0h-13.38v7.74c-2.22.59-4.32,1.46-6.27,2.58l-5.47-5.47L4.86,14.33l5.45,5.45c-1.14,1.95-2.02,4.06-2.62,6.29H0ZM32.76,15.21c9.73,0,17.62,7.89,17.62,17.62s-7.89,17.62-17.62,17.62-17.62-7.89-17.62-17.62,7.89-17.62,17.62-17.62ZM26.23,36.95h6.05l.99,2.55h3.76l-5.83-13.84h-3.62l-5.97,13.84h3.62l1.01-2.55ZM29.28,29.16l1.98,5.12h-4l2.02-5.12ZM38.3,28.85h3.4v10.66h-3.4v-10.66ZM38.22,25.78c0-1.05.75-1.8,1.8-1.8s1.8.75,1.8,1.8-.75,1.82-1.8,1.82-1.8-.75-1.8-1.82Z"/>
  </g>
</svg>