<?xml version="1.0" encoding="UTF-8"?>
<svg id="Layer_2" data-name="Layer 2" xmlns="http://www.w3.org/2000/svg" viewBox="0 0 65.51 65.51">
  <defs>
    <style>
      .cls-1 {
        fill: #ff595a;
      }
    </style>
  </defs>
  <g id="Design">
    <g>
      <path class="cls-1" d="M63.69,15.53c-1.25-3.09-3.09-5.86-5.47-8.24-2.38-2.38-5.15-4.22-8.24-5.47-2.98-1.21-6.14-1.82-9.37-1.82s-6.38.61-9.37,1.82c-3.09,1.25-5.86,3.09-8.24,5.47-2.38,2.38-4.22,5.15-5.47,8.24-1.21,2.98-1.82,6.14-1.82,9.37s.61,6.38,1.82,9.37c.96,2.36,2.25,4.53,3.87,6.48l-3.46,3.46,3.36,3.36,3.46-3.46c1.95,1.62,4.12,2.91,6.48,3.87,2.98,1.21,6.14,1.82,9.37,1.82s6.38-.61,9.37-1.82c3.09-1.25,5.86-3.09,8.24-5.47,2.38-2.38,4.22-5.15,5.47-8.24,1.21-2.98,1.82-6.14,1.82-9.37s-.61-6.38-1.82-9.37ZM59.28,32.48c-1.01,2.5-2.5,4.74-4.43,6.66-1.92,1.92-4.17,3.41-6.66,4.43-2.41.98-4.96,1.47-7.58,1.47s-5.17-.5-7.58-1.47c-2.5-1.01-4.74-2.5-6.66-4.43-1.92-1.92-3.41-4.17-4.43-6.66-.98-2.41-1.47-4.96-1.47-7.58s.5-5.17,1.47-7.58c1.01-2.5,2.5-4.74,4.43-6.66s4.17-3.41,6.66-4.43c2.41-.98,4.96-1.47,7.58-1.47s5.17.5,7.58,1.47c2.5,1.01,4.74,2.5,6.66,4.43s3.41,4.17,4.43,6.66c.98,2.41,1.47,4.96,1.47,7.58s-.5,5.17-1.47,7.58Z"/>
      <path class="cls-1" d="M15.35,43.9l6.26,6.26-14.06,14.06c-.86.86-2,1.3-3.13,1.3s-2.26-.43-3.13-1.3c-1.73-1.73-1.73-4.53,0-6.26l14.06-14.06Z"/>
      <path class="cls-1" d="M56.13,24c-1.3-2.62-5.85-10.09-15.52-10.09s-14.23,7.47-15.52,10.09c-.28.56-.28,1.23,0,1.79,1.3,2.62,5.85,10.09,15.52,10.09s14.22-7.47,15.52-10.09c.28-.57.28-1.23,0-1.79ZM40.61,32.56c-4.23,0-7.66-3.43-7.66-7.66s3.43-7.66,7.66-7.66c1.39,0,2.69.37,3.81,1.01.32-.16.69-.25,1.07-.25,1.34,0,2.42,1.08,2.42,2.42,0,.46-.13.89-.35,1.26.45.98.7,2.06.7,3.21,0,4.23-3.43,7.66-7.66,7.66Z"/>
      <path class="cls-1" d="M46.64,24.9c0,3.33-2.7,6.03-6.03,6.03s-6.03-2.7-6.03-6.03,2.7-6.03,6.03-6.03c.95,0,1.85.22,2.65.61-.12.29-.19.61-.19.95,0,1.34,1.08,2.42,2.42,2.42.26,0,.51-.04.75-.12.26.67.4,1.4.4,2.16Z"/>
    </g>
  </g>
</svg>