<?xml version="1.0" encoding="UTF-8"?>
<svg id="Layer_2" data-name="Layer 2" xmlns="http://www.w3.org/2000/svg" viewBox="0 0 65.51 65.51">
  <defs>
    <style>
      .cls-1 {
        fill: #ff595a;
      }
    </style>
  </defs>
  <g id="Design">
    <g>
      <path class="cls-1" d="M32.76,10.24c-12.42,0-22.51,10.1-22.51,22.51s10.1,22.51,22.51,22.51,22.51-10.1,22.51-22.51-10.1-22.51-22.51-22.51ZM45.04,48.11c0,.57-.46,1.02-1.02,1.02h-22.51c-.57,0-1.02-.46-1.02-1.02v-30.7c0-.57.46-1.02,1.02-1.02h22.51c.57,0,1.02.46,1.02,1.02v30.7h0Z"/>
      <path class="cls-1" d="M22.52,47.08h6.14v-9.21c0-.57.46-1.02,1.02-1.02h6.14c.57,0,1.02.46,1.02,1.02v9.21h6.14v-28.66h-20.47v28.66ZM34.8,21.5h4.09v4.09h-4.09v-4.09ZM34.8,29.68h4.09v4.09h-4.09v-4.09ZM26.61,21.5h4.09v4.09h-4.09v-4.09ZM26.61,29.68h4.09v4.09h-4.09v-4.09Z"/>
      <rect class="cls-1" x="30.71" y="38.9" width="4.09" height="8.19"/>
      <path class="cls-1" d="M31.73,5.97v2.25c.34-.01.68-.02,1.02-.02s.68,0,1.02.02v-2.25c1.19-.42,2.05-1.56,2.05-2.89C35.83,1.38,34.45,0,32.76,0s-3.07,1.38-3.07,3.07c0,1.33.86,2.47,2.05,2.89Z"/>
      <path class="cls-1" d="M3.07,6.14c.45,0,.91-.1,1.32-.3l10.29,10.29c.46-.5.95-.98,1.45-1.45L5.84,4.39c.54-1.14.35-2.55-.6-3.49-.58-.58-1.35-.9-2.17-.9S1.48.32.9.9c-.58.58-.9,1.35-.9,2.17s.32,1.59.9,2.17c.6.6,1.39.9,2.17.9Z"/>
      <path class="cls-1" d="M5.97,31.73c-.42-1.19-1.56-2.05-2.89-2.05C1.38,29.68,0,31.06,0,32.76s1.38,3.07,3.07,3.07c1.33,0,2.47-.86,2.89-2.05h2.25c-.01-.34-.02-.68-.02-1.02s0-.68.02-1.02h-2.25Z"/>
      <path class="cls-1" d="M33.78,59.54v-2.25c-.34.01-.68.02-1.02.02s-.68,0-1.02-.02v2.25c-1.19.42-2.05,1.56-2.05,2.89,0,1.69,1.38,3.07,3.07,3.07s3.07-1.38,3.07-3.07c0-1.33-.86-2.47-2.05-2.89Z"/>
      <path class="cls-1" d="M59.54,33.78c.42,1.19,1.56,2.05,2.89,2.05,1.69,0,3.07-1.38,3.07-3.07s-1.38-3.07-3.07-3.07c-1.33,0-2.47.86-2.89,2.05h-2.25c.01.34.02.68.02,1.02s0,.68-.02,1.02h2.25Z"/>
      <path class="cls-1" d="M62.44,59.37c-.47,0-.92.1-1.33.3l-10.29-10.29c-.46.5-.95.98-1.45,1.45l10.29,10.29c-.2.41-.3.86-.3,1.33,0,.41.08.81.23,1.18.15.37.38.71.67,1,.58.58,1.35.9,2.17.9s1.59-.32,2.17-.9.9-1.35.9-2.17-.32-1.59-.9-2.17c-.58-.58-1.35-.9-2.17-.9Z"/>
      <path class="cls-1" d="M50.82,16.13l10.29-10.29c.42.2.87.3,1.32.3.79,0,1.57-.3,2.17-.9.58-.58.9-1.35.9-2.17s-.32-1.59-.9-2.17-1.35-.9-2.17-.9-1.59.32-2.17.9c-.58.58-.9,1.35-.9,2.17,0,.47.1.92.3,1.33l-10.29,10.29c.5.46.98.95,1.45,1.45Z"/>
      <path class="cls-1" d="M14.69,49.38l-10.29,10.29c-.41-.2-.86-.3-1.32-.3-.82,0-1.59.32-2.17.9-.58.58-.9,1.35-.9,2.17s.32,1.59.9,2.17,1.35.9,2.17.9,1.59-.32,2.17-.9c.94-.94,1.14-2.35.6-3.49l10.29-10.29c-.5-.46-.99-.95-1.45-1.45Z"/>
    </g>
  </g>
</svg>